<svg id="visual" viewBox="0 0 900 600" width="900" height="600" xmlns="http://www.w3.org/2000/svg" xmlns:xlink="http://www.w3.org/1999/xlink" version="1.1"><rect x="0" y="0" width="900" height="600" fill="#303030"></rect><path d="M0 376L25 383.5C50 391 100 406 150 400C200 394 250 367 300 353.8C350 340.7 400 341.3 450 358.3C500 375.3 550 408.7 600 396.5C650 384.3 700 326.7 750 299C800 271.3 850 273.7 875 274.8L900 276L900 601L875 601C850 601 800 601 750 601C700 601 650 601 600 601C550 601 500 601 450 601C400 601 350 601 300 601C250 601 200 601 150 601C100 601 50 601 25 601L0 601Z" fill="#282828"></path><path d="M0 462L25 457.7C50 453.3 100 444.7 150 446.7C200 448.7 250 461.3 300 474.2C350 487 400 500 450 484.5C500 469 550 425 600 418C650 411 700 441 750 447.3C800 453.7 850 436.3 875 427.7L900 419L900 601L875 601C850 601 800 601 750 601C700 601 650 601 600 601C550 601 500 601 450 601C400 601 350 601 300 601C250 601 200 601 150 601C100 601 50 601 25 601L0 601Z" fill="#1e1e1e"></path></svg>